<svg xmlns="http://www.w3.org/2000/svg" xmlns:xlink="http://www.w3.org/1999/xlink" width="210" zoomAndPan="magnify" viewBox="0 0 157.5 37.5" height="50" preserveAspectRatio="xMidYMid meet" version="1.0"><defs><g/></defs><g fill="#00adb5" fill-opacity="1"><g transform="translate(2.645677, 26.48183)"><g><path d="M 0.988281 -18.1875 L 3.488281 -18.1875 L 3.488281 -12.644531 C 3.910156 -13.042969 4.28125 -13.339844 4.777344 -13.5625 C 5 -13.683594 5.246094 -13.734375 5.46875 -13.734375 C 6.160156 -13.734375 6.632812 -13.339844 6.953125 -12.84375 C 7.25 -12.324219 7.398438 -11.65625 7.398438 -11.085938 L 7.398438 -2.449219 C 7.398438 -1.878906 7.25 -1.210938 6.953125 -0.71875 C 6.632812 -0.199219 6.160156 0.199219 5.46875 0.199219 C 5 0.199219 4.503906 -0.0742188 4.132812 -0.347656 C 3.910156 -0.519531 3.710938 -0.691406 3.488281 -0.890625 L 3.488281 0 L 0.988281 0 Z M 3.488281 -2.96875 C 3.488281 -2.5 3.859375 -2.152344 4.230469 -2.152344 C 4.601562 -2.152344 4.898438 -2.5 4.898438 -2.96875 L 4.898438 -10.566406 C 4.898438 -11.039062 4.601562 -11.382812 4.230469 -11.382812 C 3.859375 -11.382812 3.488281 -10.960938 3.488281 -10.566406 Z M 3.488281 -2.96875 "/></g></g></g><g fill="#00adb5" fill-opacity="1"><g transform="translate(10.960155, 26.48183)"><g><path d="M 7.175781 -3.292969 C 7.101562 -1.980469 6.707031 -1.0625 5.839844 -0.347656 C 5.394531 0.0234375 4.777344 0.199219 3.960938 0.199219 C 2.351562 0.199219 1.558594 -0.691406 1.164062 -1.582031 C 0.941406 -2.101562 0.792969 -2.699219 0.765625 -3.367188 L 0.765625 -10.171875 C 0.839844 -11.484375 1.238281 -12.449219 2.101562 -13.191406 C 2.523438 -13.5625 3.144531 -13.734375 3.960938 -13.734375 C 5.566406 -13.734375 6.382812 -12.84375 6.78125 -11.976562 C 7.003906 -11.457031 7.152344 -10.886719 7.175781 -10.246094 Z M 4.824219 -10.171875 C 4.851562 -10.691406 4.75 -11.0625 4.503906 -11.359375 C 4.378906 -11.484375 4.183594 -11.558594 3.960938 -11.558594 C 3.488281 -11.558594 3.292969 -11.234375 3.191406 -10.863281 C 3.117188 -10.664062 3.09375 -10.441406 3.117188 -10.171875 L 3.117188 -3.367188 C 3.09375 -2.847656 3.21875 -2.476562 3.441406 -2.203125 C 3.5625 -2.078125 3.738281 -2.003906 3.960938 -2.003906 C 4.429688 -2.003906 4.652344 -2.300781 4.75 -2.671875 C 4.824219 -2.871094 4.851562 -3.09375 4.824219 -3.367188 Z M 4.824219 -10.171875 "/></g></g></g><g fill="#00adb5" fill-opacity="1"><g transform="translate(18.928192, 26.48183)"><g><path d="M 0.148438 -2.027344 L 3.589844 -11.261719 L 0.691406 -11.261719 L 0.691406 -13.535156 L 6.234375 -13.535156 L 6.234375 -11.507812 L 2.796875 -2.277344 L 6.234375 -2.277344 L 6.234375 0 L 0.148438 0 Z M 0.148438 -2.027344 "/></g></g></g><g fill="#00adb5" fill-opacity="1"><g transform="translate(25.386762, 26.48183)"><g><path d="M 4.777344 -10.320312 C 4.777344 -10.542969 4.777344 -10.886719 4.703125 -11.136719 C 4.601562 -11.382812 4.40625 -11.558594 4.082031 -11.558594 C 3.664062 -11.558594 3.488281 -11.234375 3.414062 -10.839844 C 3.390625 -10.640625 3.367188 -10.417969 3.367188 -10.195312 C 3.367188 -9.972656 3.367188 -9.75 3.367188 -9.550781 L 0.867188 -9.550781 L 0.867188 -10.121094 C 0.867188 -11.113281 1.238281 -12.003906 1.832031 -12.671875 C 2.425781 -13.339844 3.265625 -13.734375 4.230469 -13.734375 C 5.046875 -13.734375 5.789062 -13.414062 6.359375 -12.867188 C 6.929688 -12.324219 7.277344 -11.558594 7.277344 -10.664062 L 7.277344 -2.351562 C 7.277344 -1.136719 7.351562 -0.59375 7.449219 0 L 5 0 C 4.777344 -0.273438 4.777344 -0.914062 4.777344 -1.089844 L 4.601562 -1.089844 C 4.480469 -0.867188 4.257812 -0.542969 3.910156 -0.273438 C 3.5625 0 3.09375 0.199219 2.597656 0.199219 C 2.277344 0.199219 1.757812 0.0742188 1.359375 -0.421875 C 0.941406 -0.890625 0.59375 -1.730469 0.59375 -3.144531 C 0.59375 -4.652344 1.039062 -5.742188 1.632812 -6.484375 C 2.226562 -7.226562 2.96875 -7.695312 3.589844 -8.019531 C 4.207031 -8.339844 4.675781 -8.5625 4.777344 -8.835938 Z M 4.777344 -6.53125 C 3.5625 -6.011719 3.042969 -4.800781 3.042969 -3.515625 C 3.042969 -3.339844 3.070312 -3.042969 3.167969 -2.773438 C 3.265625 -2.476562 3.441406 -2.253906 3.738281 -2.253906 C 4.304688 -2.253906 4.777344 -2.597656 4.777344 -3.070312 Z M 4.777344 -6.53125 "/></g></g></g><g fill="#00adb5" fill-opacity="1"><g transform="translate(33.404298, 26.48183)"><g><path d="M 3.488281 0 L 0.988281 0 L 0.988281 -13.535156 L 3.488281 -13.535156 L 3.488281 -12.398438 C 3.539062 -12.421875 3.636719 -12.523438 3.785156 -12.671875 C 4.058594 -12.941406 4.429688 -13.3125 4.875 -13.5625 C 5.097656 -13.683594 5.296875 -13.734375 5.519531 -13.734375 C 6.1875 -13.734375 6.65625 -13.339844 6.953125 -12.84375 C 7.25 -12.324219 7.398438 -11.65625 7.398438 -11.085938 L 7.398438 0 L 4.898438 0 L 4.898438 -10.714844 C 4.898438 -11.234375 4.601562 -11.308594 4.304688 -11.308594 C 4.035156 -11.308594 3.886719 -11.160156 3.710938 -10.988281 C 3.636719 -10.886719 3.5625 -10.789062 3.488281 -10.664062 Z M 3.488281 0 "/></g></g></g><g fill="#00adb5" fill-opacity="1"><g transform="translate(41.768263, 26.48183)"><g><path d="M 4.777344 -10.320312 C 4.777344 -10.542969 4.777344 -10.886719 4.703125 -11.136719 C 4.601562 -11.382812 4.40625 -11.558594 4.082031 -11.558594 C 3.664062 -11.558594 3.488281 -11.234375 3.414062 -10.839844 C 3.390625 -10.640625 3.367188 -10.417969 3.367188 -10.195312 C 3.367188 -9.972656 3.367188 -9.75 3.367188 -9.550781 L 0.867188 -9.550781 L 0.867188 -10.121094 C 0.867188 -11.113281 1.238281 -12.003906 1.832031 -12.671875 C 2.425781 -13.339844 3.265625 -13.734375 4.230469 -13.734375 C 5.046875 -13.734375 5.789062 -13.414062 6.359375 -12.867188 C 6.929688 -12.324219 7.277344 -11.558594 7.277344 -10.664062 L 7.277344 -2.351562 C 7.277344 -1.136719 7.351562 -0.59375 7.449219 0 L 5 0 C 4.777344 -0.273438 4.777344 -0.914062 4.777344 -1.089844 L 4.601562 -1.089844 C 4.480469 -0.867188 4.257812 -0.542969 3.910156 -0.273438 C 3.5625 0 3.09375 0.199219 2.597656 0.199219 C 2.277344 0.199219 1.757812 0.0742188 1.359375 -0.421875 C 0.941406 -0.890625 0.59375 -1.730469 0.59375 -3.144531 C 0.59375 -4.652344 1.039062 -5.742188 1.632812 -6.484375 C 2.226562 -7.226562 2.96875 -7.695312 3.589844 -8.019531 C 4.207031 -8.339844 4.675781 -8.5625 4.777344 -8.835938 Z M 4.777344 -6.53125 C 3.5625 -6.011719 3.042969 -4.800781 3.042969 -3.515625 C 3.042969 -3.339844 3.070312 -3.042969 3.167969 -2.773438 C 3.265625 -2.476562 3.441406 -2.253906 3.738281 -2.253906 C 4.304688 -2.253906 4.777344 -2.597656 4.777344 -3.070312 Z M 4.777344 -6.53125 "/></g></g></g><g fill="#00adb5" fill-opacity="1"><g transform="translate(49.785798, 26.48183)"><g><path d="M 0.148438 -2.027344 L 3.589844 -11.261719 L 0.691406 -11.261719 L 0.691406 -13.535156 L 6.234375 -13.535156 L 6.234375 -11.507812 L 2.796875 -2.277344 L 6.234375 -2.277344 L 6.234375 0 L 0.148438 0 Z M 0.148438 -2.027344 "/></g></g></g><g fill="#00adb5" fill-opacity="1"><g transform="translate(56.244368, 26.48183)"><g><path d="M 7.449219 0 L 5.097656 0 L 5.097656 -10.714844 C 5.097656 -11.234375 4.703125 -11.308594 4.429688 -11.308594 C 4.15625 -11.308594 3.933594 -11.160156 3.761719 -10.988281 C 3.664062 -10.886719 3.5625 -10.789062 3.488281 -10.664062 L 3.488281 0 L 0.988281 0 L 0.988281 -13.535156 L 3.488281 -13.535156 L 3.488281 -12.398438 C 3.539062 -12.421875 3.636719 -12.523438 3.785156 -12.671875 C 4.058594 -12.941406 4.480469 -13.3125 4.925781 -13.5625 C 5.148438 -13.683594 5.34375 -13.734375 5.566406 -13.734375 C 6.457031 -13.734375 6.980469 -13.015625 7.25 -12.226562 C 7.351562 -12.300781 7.472656 -12.421875 7.648438 -12.597656 C 7.96875 -12.941406 8.390625 -13.265625 8.859375 -13.535156 C 9.082031 -13.660156 9.304688 -13.734375 9.527344 -13.734375 C 10.195312 -13.734375 10.664062 -13.339844 10.960938 -12.84375 C 11.261719 -12.324219 11.410156 -11.65625 11.410156 -11.085938 L 11.410156 0 L 9.058594 0 L 9.058594 -10.714844 C 9.058594 -11.234375 8.660156 -11.308594 8.390625 -11.308594 C 8.117188 -11.308594 7.894531 -11.160156 7.722656 -10.988281 C 7.621094 -10.886719 7.523438 -10.789062 7.449219 -10.664062 Z M 7.449219 0 "/></g></g></g><g fill="#00adb5" fill-opacity="1"><g transform="translate(68.617104, 26.48183)"><g><path d="M 0.988281 -18.1875 L 3.488281 -18.1875 L 3.488281 -15.691406 L 0.988281 -15.691406 Z M 0.988281 0 L 0.988281 -13.535156 L 3.488281 -13.535156 L 3.488281 0 Z M 0.988281 0 "/></g></g></g><g fill="#00adb5" fill-opacity="1"><g transform="translate(73.120781, 26.48183)"><g><path d="M 9.847656 -4.824219 L 7.871094 -4.824219 L 7.621094 -5.492188 C 7.449219 -5.171875 7.226562 -4.972656 6.878906 -4.800781 C 6.707031 -4.726562 6.484375 -4.675781 6.261719 -4.675781 C 4.949219 -4.675781 4.503906 -5.59375 4.503906 -6.757812 L 4.503906 -12.621094 C 4.503906 -13.734375 4.949219 -14.675781 6.261719 -14.675781 C 6.730469 -14.675781 7.078125 -14.453125 7.300781 -14.253906 C 7.425781 -14.128906 7.546875 -14.007812 7.621094 -13.859375 L 7.621094 -14.402344 C 7.621094 -14.675781 7.523438 -15.144531 7.175781 -15.566406 C 6.832031 -15.960938 6.234375 -16.308594 5.320312 -16.308594 C 4.40625 -16.308594 3.835938 -15.960938 3.488281 -15.566406 C 3.144531 -15.144531 3.019531 -14.675781 3.019531 -14.402344 L 3.019531 -3.664062 C 3.019531 -3.367188 3.144531 -2.894531 3.488281 -2.523438 C 3.835938 -2.128906 4.40625 -1.804688 5.320312 -1.804688 C 6.382812 -1.804688 6.953125 -2.078125 7.351562 -2.574219 L 9.179688 -1.535156 C 8.511719 -0.644531 7.398438 0.199219 5.320312 0.199219 C 3.515625 0.199219 2.375 -0.496094 1.707031 -1.3125 C 1.015625 -2.128906 0.792969 -3.09375 0.792969 -3.664062 L 0.792969 -14.402344 C 0.792969 -14.996094 1.015625 -16.011719 1.707031 -16.851562 C 2.375 -17.695312 3.515625 -18.386719 5.320312 -18.386719 C 7.128906 -18.386719 8.265625 -17.695312 8.957031 -16.851562 C 9.625 -16.011719 9.847656 -14.996094 9.847656 -14.402344 Z M 7.621094 -12.421875 C 7.621094 -12.820312 7.398438 -13.066406 7.027344 -13.066406 C 6.65625 -13.066406 6.457031 -12.84375 6.457031 -12.421875 L 6.457031 -6.929688 C 6.457031 -6.507812 6.65625 -6.285156 7.027344 -6.285156 C 7.398438 -6.285156 7.621094 -6.457031 7.621094 -6.929688 Z M 7.621094 -12.421875 "/></g></g></g><g fill="#00adb5" fill-opacity="1"><g transform="translate(83.687094, 26.48183)"><g><path d="M 7.101562 -6.53125 C 7.027344 -5.269531 6.582031 -4.378906 5.714844 -3.710938 C 5.269531 -3.367188 4.652344 -3.191406 3.886719 -3.191406 C 3.8125 -3.191406 3.738281 -3.191406 3.664062 -3.191406 C 3.589844 -3.191406 3.488281 -3.191406 3.414062 -3.21875 C 3.191406 -3.019531 3.070312 -2.820312 3.070312 -2.597656 C 3.070312 -2.300781 3.316406 -2.128906 3.6875 -2.027344 C 4.058594 -1.90625 4.503906 -1.832031 4.972656 -1.757812 C 5.765625 -1.65625 6.609375 -1.460938 7.300781 -0.988281 C 7.96875 -0.519531 8.4375 0.199219 8.4375 1.386719 C 8.4375 2.699219 7.871094 3.589844 7.078125 4.109375 C 6.261719 4.628906 5.171875 4.851562 4.15625 4.851562 C 2.96875 4.824219 1.953125 4.652344 1.261719 4.257812 C 0.542969 3.859375 0.148438 3.21875 0.148438 2.226562 C 0.148438 1.757812 0.394531 1.359375 0.765625 1.015625 C 1.136719 0.667969 1.632812 0.394531 2.101562 0.171875 C 1.285156 -0.0507812 0.59375 -0.570312 0.59375 -1.632812 C 0.59375 -2.027344 0.816406 -2.425781 1.113281 -2.796875 C 1.410156 -3.167969 1.78125 -3.464844 2.152344 -3.664062 C 1.433594 -4.132812 1.089844 -4.875 0.914062 -5.492188 C 0.816406 -5.863281 0.742188 -6.234375 0.71875 -6.609375 L 0.71875 -10.292969 C 0.816406 -11.558594 1.210938 -12.472656 2.078125 -13.191406 C 2.5 -13.5625 3.117188 -13.734375 3.886719 -13.734375 C 5.148438 -13.734375 5.914062 -13.164062 6.382812 -12.496094 C 6.558594 -12.671875 6.855469 -12.96875 7.25 -13.238281 C 7.621094 -13.511719 8.042969 -13.734375 8.4375 -13.734375 L 8.4375 -11.507812 C 7.769531 -11.507812 7.277344 -11.382812 6.980469 -11.210938 C 7.003906 -11.085938 7.027344 -10.960938 7.054688 -10.886719 C 7.054688 -10.789062 7.054688 -10.691406 7.078125 -10.617188 C 7.101562 -10.542969 7.101562 -10.441406 7.101562 -10.367188 Z M 4.652344 -10.195312 C 4.652344 -10.664062 4.554688 -10.960938 4.355469 -11.234375 C 4.257812 -11.359375 4.109375 -11.433594 3.886719 -11.433594 C 3.488281 -11.433594 3.292969 -11.113281 3.21875 -10.8125 C 3.167969 -10.640625 3.144531 -10.417969 3.167969 -10.195312 L 3.167969 -6.484375 C 3.144531 -6.011719 3.21875 -5.714844 3.441406 -5.46875 C 3.539062 -5.34375 3.6875 -5.269531 3.886719 -5.269531 C 4.304688 -5.269531 4.480469 -5.566406 4.578125 -5.863281 C 4.628906 -6.039062 4.652344 -6.261719 4.652344 -6.484375 Z M 3.488281 0.617188 C 2.96875 0.914062 2.574219 1.285156 2.574219 1.804688 C 2.574219 2.328125 3.042969 2.746094 4.207031 2.746094 C 4.628906 2.746094 5.097656 2.671875 5.46875 2.523438 C 5.839844 2.375 6.113281 2.152344 6.113281 1.832031 C 6.113281 1.609375 6.085938 1.433594 5.914062 1.261719 C 5.714844 1.089844 5.394531 0.964844 4.777344 0.867188 Z M 3.488281 0.617188 "/></g></g></g><g fill="#00adb5" fill-opacity="1"><g transform="translate(92.174787, 26.48183)"><g><path d="M 7.449219 0 L 5.097656 0 L 5.097656 -10.714844 C 5.097656 -11.234375 4.703125 -11.308594 4.429688 -11.308594 C 4.15625 -11.308594 3.933594 -11.160156 3.761719 -10.988281 C 3.664062 -10.886719 3.5625 -10.789062 3.488281 -10.664062 L 3.488281 0 L 0.988281 0 L 0.988281 -13.535156 L 3.488281 -13.535156 L 3.488281 -12.398438 C 3.539062 -12.421875 3.636719 -12.523438 3.785156 -12.671875 C 4.058594 -12.941406 4.480469 -13.3125 4.925781 -13.5625 C 5.148438 -13.683594 5.34375 -13.734375 5.566406 -13.734375 C 6.457031 -13.734375 6.980469 -13.015625 7.25 -12.226562 C 7.351562 -12.300781 7.472656 -12.421875 7.648438 -12.597656 C 7.96875 -12.941406 8.390625 -13.265625 8.859375 -13.535156 C 9.082031 -13.660156 9.304688 -13.734375 9.527344 -13.734375 C 10.195312 -13.734375 10.664062 -13.339844 10.960938 -12.84375 C 11.261719 -12.324219 11.410156 -11.65625 11.410156 -11.085938 L 11.410156 0 L 9.058594 0 L 9.058594 -10.714844 C 9.058594 -11.234375 8.660156 -11.308594 8.390625 -11.308594 C 8.117188 -11.308594 7.894531 -11.160156 7.722656 -10.988281 C 7.621094 -10.886719 7.523438 -10.789062 7.449219 -10.664062 Z M 7.449219 0 "/></g></g></g><g fill="#00adb5" fill-opacity="1"><g transform="translate(104.547523, 26.48183)"><g><path d="M 4.777344 -10.320312 C 4.777344 -10.542969 4.777344 -10.886719 4.703125 -11.136719 C 4.601562 -11.382812 4.40625 -11.558594 4.082031 -11.558594 C 3.664062 -11.558594 3.488281 -11.234375 3.414062 -10.839844 C 3.390625 -10.640625 3.367188 -10.417969 3.367188 -10.195312 C 3.367188 -9.972656 3.367188 -9.75 3.367188 -9.550781 L 0.867188 -9.550781 L 0.867188 -10.121094 C 0.867188 -11.113281 1.238281 -12.003906 1.832031 -12.671875 C 2.425781 -13.339844 3.265625 -13.734375 4.230469 -13.734375 C 5.046875 -13.734375 5.789062 -13.414062 6.359375 -12.867188 C 6.929688 -12.324219 7.277344 -11.558594 7.277344 -10.664062 L 7.277344 -2.351562 C 7.277344 -1.136719 7.351562 -0.59375 7.449219 0 L 5 0 C 4.777344 -0.273438 4.777344 -0.914062 4.777344 -1.089844 L 4.601562 -1.089844 C 4.480469 -0.867188 4.257812 -0.542969 3.910156 -0.273438 C 3.5625 0 3.09375 0.199219 2.597656 0.199219 C 2.277344 0.199219 1.757812 0.0742188 1.359375 -0.421875 C 0.941406 -0.890625 0.59375 -1.730469 0.59375 -3.144531 C 0.59375 -4.652344 1.039062 -5.742188 1.632812 -6.484375 C 2.226562 -7.226562 2.96875 -7.695312 3.589844 -8.019531 C 4.207031 -8.339844 4.675781 -8.5625 4.777344 -8.835938 Z M 4.777344 -6.53125 C 3.5625 -6.011719 3.042969 -4.800781 3.042969 -3.515625 C 3.042969 -3.339844 3.070312 -3.042969 3.167969 -2.773438 C 3.265625 -2.476562 3.441406 -2.253906 3.738281 -2.253906 C 4.304688 -2.253906 4.777344 -2.597656 4.777344 -3.070312 Z M 4.777344 -6.53125 "/></g></g></g><g fill="#00adb5" fill-opacity="1"><g transform="translate(112.565064, 26.48183)"><g><path d="M 0.988281 -18.1875 L 3.488281 -18.1875 L 3.488281 -15.691406 L 0.988281 -15.691406 Z M 0.988281 0 L 0.988281 -13.535156 L 3.488281 -13.535156 L 3.488281 0 Z M 0.988281 0 "/></g></g></g><g fill="#00adb5" fill-opacity="1"><g transform="translate(117.068747, 26.48183)"><g><path d="M 0.988281 -18.1875 L 3.488281 -18.1875 L 3.488281 0 L 0.988281 0 Z M 0.988281 -18.1875 "/></g></g></g><g fill="#00adb5" fill-opacity="1"><g transform="translate(121.572429, 26.48183)"><g><path d="M 0.644531 -2.746094 L 3.242188 -2.746094 L 3.242188 0 L 0.644531 0 Z M 0.644531 -2.746094 "/></g></g></g><g fill="#00adb5" fill-opacity="1"><g transform="translate(125.482215, 26.48183)"><g><path d="M 3.292969 -3.117188 C 3.292969 -2.625 3.316406 -2.027344 3.984375 -2.027344 C 4.554688 -2.027344 4.703125 -2.300781 4.703125 -3.117188 L 4.703125 -5 L 7.203125 -5 L 7.203125 -3.6875 C 7.203125 -2.175781 6.929688 -1.210938 6.382812 -0.617188 C 5.839844 -0.0234375 5.046875 0.199219 3.984375 0.199219 C 3.09375 0.199219 2.277344 -0.0507812 1.707031 -0.667969 C 1.136719 -1.285156 0.792969 -2.300781 0.792969 -3.8125 L 0.792969 -9.726562 C 0.792969 -11.234375 1.136719 -12.25 1.707031 -12.867188 C 2.277344 -13.488281 3.09375 -13.734375 3.984375 -13.734375 C 5.046875 -13.734375 5.839844 -13.511719 6.382812 -12.917969 C 6.929688 -12.324219 7.203125 -11.359375 7.203125 -9.847656 L 7.203125 -8.785156 L 4.703125 -8.785156 L 4.703125 -10.417969 C 4.703125 -11.234375 4.554688 -11.507812 3.984375 -11.507812 C 3.316406 -11.507812 3.292969 -10.914062 3.292969 -10.417969 Z M 3.292969 -3.117188 "/></g></g></g><g fill="#00adb5" fill-opacity="1"><g transform="translate(133.301787, 26.48183)"><g><path d="M 7.175781 -3.292969 C 7.101562 -1.980469 6.707031 -1.0625 5.839844 -0.347656 C 5.394531 0.0234375 4.777344 0.199219 3.960938 0.199219 C 2.351562 0.199219 1.558594 -0.691406 1.164062 -1.582031 C 0.941406 -2.101562 0.792969 -2.699219 0.765625 -3.367188 L 0.765625 -10.171875 C 0.839844 -11.484375 1.238281 -12.449219 2.101562 -13.191406 C 2.523438 -13.5625 3.144531 -13.734375 3.960938 -13.734375 C 5.566406 -13.734375 6.382812 -12.84375 6.78125 -11.976562 C 7.003906 -11.457031 7.152344 -10.886719 7.175781 -10.246094 Z M 4.824219 -10.171875 C 4.851562 -10.691406 4.75 -11.0625 4.503906 -11.359375 C 4.378906 -11.484375 4.183594 -11.558594 3.960938 -11.558594 C 3.488281 -11.558594 3.292969 -11.234375 3.191406 -10.863281 C 3.117188 -10.664062 3.09375 -10.441406 3.117188 -10.171875 L 3.117188 -3.367188 C 3.09375 -2.847656 3.21875 -2.476562 3.441406 -2.203125 C 3.5625 -2.078125 3.738281 -2.003906 3.960938 -2.003906 C 4.429688 -2.003906 4.652344 -2.300781 4.75 -2.671875 C 4.824219 -2.871094 4.851562 -3.09375 4.824219 -3.367188 Z M 4.824219 -10.171875 "/></g></g></g><g fill="#00adb5" fill-opacity="1"><g transform="translate(141.269819, 26.48183)"><g><path d="M 7.449219 0 L 5.097656 0 L 5.097656 -10.714844 C 5.097656 -11.234375 4.703125 -11.308594 4.429688 -11.308594 C 4.15625 -11.308594 3.933594 -11.160156 3.761719 -10.988281 C 3.664062 -10.886719 3.5625 -10.789062 3.488281 -10.664062 L 3.488281 0 L 0.988281 0 L 0.988281 -13.535156 L 3.488281 -13.535156 L 3.488281 -12.398438 C 3.539062 -12.421875 3.636719 -12.523438 3.785156 -12.671875 C 4.058594 -12.941406 4.480469 -13.3125 4.925781 -13.5625 C 5.148438 -13.683594 5.34375 -13.734375 5.566406 -13.734375 C 6.457031 -13.734375 6.980469 -13.015625 7.25 -12.226562 C 7.351562 -12.300781 7.472656 -12.421875 7.648438 -12.597656 C 7.96875 -12.941406 8.390625 -13.265625 8.859375 -13.535156 C 9.082031 -13.660156 9.304688 -13.734375 9.527344 -13.734375 C 10.195312 -13.734375 10.664062 -13.339844 10.960938 -12.84375 C 11.261719 -12.324219 11.410156 -11.65625 11.410156 -11.085938 L 11.410156 0 L 9.058594 0 L 9.058594 -10.714844 C 9.058594 -11.234375 8.660156 -11.308594 8.390625 -11.308594 C 8.117188 -11.308594 7.894531 -11.160156 7.722656 -10.988281 C 7.621094 -10.886719 7.523438 -10.789062 7.449219 -10.664062 Z M 7.449219 0 "/></g></g></g></svg>