<svg xmlns="http://www.w3.org/2000/svg" xmlns:xlink="http://www.w3.org/1999/xlink" width="410" zoomAndPan="magnify" viewBox="0 0 307.5 154.499995" height="206" preserveAspectRatio="xMidYMid meet" version="1.0"><defs><g/><clipPath id="a2d5522f0d"><path d="M 0.246094 0 L 306.753906 0 L 306.753906 154 L 0.246094 154 Z M 0.246094 0 " clip-rule="nonzero"/></clipPath></defs><g clip-path="url(#a2d5522f0d)"><path fill="#ffffff" d="M 0.246094 0 L 307.253906 0 L 307.253906 160.992188 L 0.246094 160.992188 Z M 0.246094 0 " fill-opacity="1" fill-rule="nonzero"/><path fill="#ffffff" d="M 0.246094 0 L 307.253906 0 L 307.253906 154.253906 L 0.246094 154.253906 Z M 0.246094 0 " fill-opacity="1" fill-rule="nonzero"/><path fill="#00adb5" d="M 0.246094 0 L 307.253906 0 L 307.253906 154.253906 L 0.246094 154.253906 Z M 0.246094 0 " fill-opacity="1" fill-rule="nonzero"/></g><g fill="#222831" fill-opacity="1"><g transform="translate(28.528419, 96.969098)"><g><path d="M 19.222656 -15.089844 L 19.222656 -9.042969 C 19.160156 -7.246094 18.800781 -5.628906 18.144531 -4.25 C 17.605469 -3.054688 16.765625 -1.917969 15.570312 -1.019531 C 14.371094 -0.0585938 12.753906 0.480469 10.597656 0.480469 C 8.441406 0.480469 6.765625 -0.0585938 5.570312 -1.019531 C 4.371094 -1.917969 3.59375 -3.054688 3.054688 -4.25 C 2.394531 -5.628906 2.035156 -7.246094 1.976562 -9.042969 L 1.976562 -34.96875 C 2.035156 -36.707031 2.394531 -38.324219 3.054688 -39.703125 C 3.59375 -40.898438 4.371094 -42.097656 5.570312 -42.996094 C 6.765625 -43.894531 8.441406 -44.492188 10.597656 -44.492188 C 12.753906 -44.492188 14.371094 -43.894531 15.570312 -42.996094 C 16.765625 -42.097656 17.605469 -40.898438 18.144531 -39.703125 C 18.800781 -38.324219 19.160156 -36.707031 19.222656 -34.96875 L 19.222656 -28.921875 L 13.175781 -28.921875 L 13.175781 -34.96875 C 13.175781 -36.167969 12.875 -37.007812 12.214844 -37.726562 C 11.917969 -38.023438 11.378906 -38.203125 10.71875 -38.203125 C 9.582031 -38.203125 9.042969 -37.367188 8.742188 -36.585938 C 8.5625 -36.109375 8.503906 -35.570312 8.441406 -34.96875 L 8.441406 -9.042969 C 8.503906 -7.785156 8.863281 -6.945312 9.460938 -6.289062 C 9.761719 -5.988281 10.179688 -5.808594 10.71875 -5.808594 C 12.097656 -5.808594 12.636719 -6.527344 12.933594 -7.425781 C 13.113281 -7.84375 13.175781 -8.382812 13.175781 -9.042969 L 13.175781 -15.089844 Z M 12.875 7.367188 L 11.558594 11.257812 L 8.503906 11.257812 L 9.699219 7.367188 L 7.84375 7.367188 L 7.84375 3.234375 L 12.875 3.234375 Z M 12.875 7.367188 "/></g></g></g><g fill="#222831" fill-opacity="1"><g transform="translate(49.306875, 96.969098)"><g><path d="M 19.222656 -9.042969 C 19.160156 -7.246094 18.800781 -5.628906 18.144531 -4.25 C 17.605469 -3.054688 16.765625 -1.917969 15.570312 -1.019531 C 14.371094 -0.0585938 12.753906 0.480469 10.597656 0.480469 C 8.441406 0.480469 6.765625 -0.0585938 5.570312 -1.019531 C 4.371094 -1.917969 3.59375 -3.054688 3.054688 -4.25 C 2.394531 -5.628906 2.035156 -7.246094 1.976562 -9.042969 L 1.976562 -34.96875 C 2.035156 -36.707031 2.394531 -38.324219 3.054688 -39.703125 C 3.59375 -40.898438 4.371094 -42.097656 5.570312 -42.996094 C 6.765625 -43.894531 8.441406 -44.492188 10.597656 -44.492188 C 12.753906 -44.492188 14.371094 -43.894531 15.570312 -42.996094 C 16.765625 -42.097656 17.605469 -40.898438 18.144531 -39.703125 C 18.800781 -38.324219 19.160156 -36.707031 19.222656 -34.96875 Z M 12.753906 -34.96875 C 12.753906 -36.167969 12.515625 -37.007812 11.917969 -37.726562 C 11.617188 -38.023438 11.136719 -38.203125 10.597656 -38.203125 C 9.460938 -38.203125 8.921875 -37.367188 8.683594 -36.585938 C 8.503906 -36.109375 8.441406 -35.570312 8.441406 -34.96875 L 8.441406 -9.042969 C 8.441406 -7.785156 8.742188 -6.945312 9.339844 -6.289062 C 9.640625 -5.988281 10.058594 -5.808594 10.597656 -5.808594 C 11.738281 -5.808594 12.277344 -6.527344 12.515625 -7.425781 C 12.695312 -7.84375 12.753906 -8.382812 12.753906 -9.042969 Z M 12.753906 -34.96875 "/></g></g></g><g fill="#222831" fill-opacity="1"><g transform="translate(70.564365, 96.969098)"><g><path d="M 8.863281 -44.011719 L 8.863281 -28.625 L 9.101562 -28.625 L 9.402344 -29.34375 L 14.789062 -44.011719 L 21.078125 -44.011719 L 15.148438 -29.519531 L 21.855469 0 L 15.570312 0 L 11.078125 -19.160156 L 10.898438 -20.058594 L 10.71875 -20.058594 L 10.359375 -19.160156 L 8.863281 -15.570312 L 8.863281 0 L 2.394531 0 L 2.394531 -44.011719 Z M 8.863281 -44.011719 "/></g></g></g><g fill="#222831" fill-opacity="1"><g transform="translate(93.079351, 96.969098)"><g/></g></g><g fill="#222831" fill-opacity="1"><g transform="translate(102.360797, 96.969098)"><g><path d="M 10 -29.941406 L 10.179688 -29.519531 L 10.300781 -29.519531 L 10.480469 -29.941406 L 13.710938 -44.011719 L 20.058594 -44.011719 L 13.472656 -18.742188 L 13.472656 0 L 7.007812 0 L 7.007812 -18.742188 L 0.417969 -44.011719 L 6.765625 -44.011719 Z M 10 -29.941406 "/></g></g></g><g fill="#222831" fill-opacity="1"><g transform="translate(122.899721, 96.969098)"><g><path d="M 0.597656 0 L 7.246094 -44.011719 L 15.148438 -44.011719 L 21.796875 0 L 15.507812 0 L 14.3125 -8.980469 L 8.082031 -8.980469 L 6.886719 0 Z M 11.558594 -29.699219 L 11.378906 -30.839844 L 11.019531 -30.839844 L 10.839844 -29.699219 L 8.980469 -15.808594 L 13.414062 -15.808594 Z M 11.558594 -29.699219 "/></g></g></g><g fill="#222831" fill-opacity="1"><g transform="translate(145.354819, 96.969098)"><g><path d="M 8.863281 -44.011719 L 8.863281 -28.625 L 9.101562 -28.625 L 9.402344 -29.34375 L 14.789062 -44.011719 L 21.078125 -44.011719 L 15.148438 -29.519531 L 21.855469 0 L 15.570312 0 L 11.078125 -19.160156 L 10.898438 -20.058594 L 10.71875 -20.058594 L 10.359375 -19.160156 L 8.863281 -15.570312 L 8.863281 0 L 2.394531 0 L 2.394531 -44.011719 Z M 8.863281 -44.011719 "/></g></g></g><g fill="#222831" fill-opacity="1"><g transform="translate(167.869799, 96.969098)"><g><path d="M 2.394531 -44.011719 L 8.863281 -44.011719 L 8.863281 0 L 2.394531 0 Z M 2.394531 -44.011719 "/></g></g></g><g fill="#222831" fill-opacity="1"><g transform="translate(179.187171, 96.969098)"><g><path d="M 9.222656 -22.933594 L 8.683594 -24.96875 L 8.324219 -24.96875 L 8.324219 0 L 2.394531 0 L 2.394531 -44.011719 L 8.144531 -44.011719 L 14.429688 -21.078125 L 14.96875 -19.042969 L 15.328125 -19.042969 L 15.328125 -44.011719 L 21.257812 -44.011719 L 21.257812 0 L 15.507812 0 Z M 9.222656 -22.933594 "/></g></g></g><g fill="#222831" fill-opacity="1"><g transform="translate(202.89975, 96.969098)"><g><path d="M 2.394531 0 L 2.394531 -44.011719 L 7.484375 -44.011719 C 13.472656 -44.011719 16.707031 -42.816406 18.445312 -39.460938 C 20.121094 -36.109375 20.359375 -30.597656 20.359375 -21.976562 C 20.359375 -13.351562 20.121094 -7.90625 18.445312 -4.550781 C 16.707031 -1.199219 13.472656 0 7.484375 0 Z M 8.863281 -6.46875 C 11.078125 -6.46875 12.335938 -6.707031 12.996094 -8.863281 C 13.292969 -9.878906 13.53125 -11.4375 13.59375 -13.53125 C 13.652344 -15.628906 13.652344 -18.445312 13.652344 -22.035156 C 13.652344 -25.628906 13.652344 -28.445312 13.59375 -30.539062 C 13.53125 -32.574219 13.292969 -34.132812 12.996094 -35.210938 C 12.335938 -37.304688 11.078125 -37.546875 8.863281 -37.546875 Z M 8.863281 -6.46875 "/></g></g></g><g fill="#222831" fill-opacity="1"><g transform="translate(225.235096, 96.969098)"><g><path d="M 0.597656 0 L 7.246094 -44.011719 L 15.148438 -44.011719 L 21.796875 0 L 15.507812 0 L 14.3125 -8.980469 L 8.082031 -8.980469 L 6.886719 0 Z M 11.558594 -29.699219 L 11.378906 -30.839844 L 11.019531 -30.839844 L 10.839844 -29.699219 L 8.980469 -15.808594 L 13.414062 -15.808594 Z M 11.558594 -29.699219 "/></g></g></g><g fill="#222831" fill-opacity="1"><g transform="translate(247.690205, 96.969098)"><g><path d="M 1.558594 -6.648438 L 7.84375 -6.648438 L 7.84375 0 L 1.558594 0 Z M 1.558594 -6.648438 "/></g></g></g><g fill="#222831" fill-opacity="1"><g transform="translate(257.151297, 96.969098)"><g><path d="M 1.558594 -6.648438 L 7.84375 -6.648438 L 7.84375 0 L 1.558594 0 Z M 1.558594 -6.648438 "/></g></g></g><g fill="#222831" fill-opacity="1"><g transform="translate(266.612389, 96.969098)"><g><path d="M 1.558594 -6.648438 L 7.84375 -6.648438 L 7.84375 0 L 1.558594 0 Z M 1.558594 -6.648438 "/></g></g></g></svg>